PathFileType	4	(X/Y/Z)	D:\TRACE\v60_Jaco2_6-2-23\JustBodyDRS_Motion3_4-platform.trc
DataRate	CameraRate	NumFrames	NumMarkers	Units	OrigDataRate	OrigDataStartFrame	OrigNumFrames
100.00	100.00	      24	5	mm	100.00	876	      7000
Frame#	Time	Left_Front			Right_Front			Left_Aft			Right_Aft			Post			
		X1	Y1	Z1	X2	Y2	Z2	X3	Y3	Z3	X4	Y4	Z4	X5	Y5	Z5	

876	8.750	-768.79950	-28.21054	-658.87561	801.48206	-29.80287	-636.37354	-700.42609	35.99720	473.68774	715.57745	39.47701	579.12146	27.48657	1249.57104	-1044.30872	
877	8.760	-768.87781	-28.25585	-658.78589	801.51355	-29.78017	-636.38733	-700.38641	35.94340	473.78104	715.46350	39.38499	579.13263	27.56069	1249.58704	-1044.17883	
878	8.770	-768.73346	-28.15499	-658.72083	801.60394	-29.77233	-636.35144	-700.29211	35.97124	473.77457	715.56689	39.37550	579.14398	27.60575	1249.57776	-1044.13635	
879	8.780	-769.21222	-28.14393	-659.34387	801.72430	-29.66556	-636.30701	-700.25391	36.03329	473.68723	715.48383	39.33825	579.11548	27.60612	1249.73022	-1043.96216	
880	8.790	-769.24420	-28.07764	-659.36890	801.72150	-29.63958	-636.33514	-700.28748	36.00177	473.70392	715.58362	39.37970	579.15210	27.61348	1249.88757	-1043.82458	
881	8.800	-769.17358	-28.06994	-659.30078	801.70801	-29.56554	-636.33569	-700.31769	35.94735	473.75494	715.51385	39.31037	579.16083	27.63697	1250.00500	-1043.75586	
882	8.810	-768.73669	-28.01685	-658.77228	801.68317	-29.52716	-636.28619	-700.31696	35.88729	473.80347	715.54645	39.27694	579.16479	27.56739	1250.11206	-1043.62024	
883	8.820	-768.72449	-27.75727	-658.68225	801.82361	-29.32767	-636.19312	-700.31329	35.83455	473.84848	714.71313	38.70147	579.09467	27.49742	1250.29529	-1043.41150	
884	8.830	-768.64417	-27.62299	-658.63257	801.92822	-29.15737	-636.21912	-700.30060	35.85027	473.86105	714.70648	38.61190	579.10321	27.78845	1250.52942	-1043.36902	
885	8.840	-768.59985	-27.63735	-658.66376	801.93988	-29.01569	-636.23065	-700.34381	35.80414	473.86185	715.41028	38.89597	579.23401	27.76888	1250.76367	-1043.19751	
886	8.850	-768.60687	-27.44608	-658.64484	801.93561	-28.89972	-636.19794	-700.37024	35.74930	473.91995	714.68268	38.39066	579.18262	27.75806	1250.89185	-1042.96558	
887	8.860	-768.67401	-27.32719	-658.55286	801.89276	-28.74550	-636.16486	-700.33002	35.50480	474.04877	714.70123	38.31405	579.21497	27.85574	1251.00525	-1042.73474	
888	8.870	-768.68317	-27.18433	-658.54828	801.90973	-28.63551	-636.10333	-700.56018	35.79206	473.79340	714.69507	38.25833	579.25507	28.02871	1251.06982	-1042.34338	
889	8.880	-768.66400	-27.03743	-658.49133	801.93481	-28.48636	-636.07233	-700.52454	35.72090	473.80859	714.75574	38.22347	579.25507	27.81360	1251.42200	-1041.88806	
890	8.890	-768.55420	-26.92912	-658.46082	802.03937	-28.26926	-636.01990	-700.49243	35.70477	473.84662	714.82886	38.12215	579.36536	27.91996	1251.63086	-1041.36194	
891	8.900	-768.48267	-26.77577	-658.46790	802.04578	-28.09787	-636.00922	-700.45911	35.58092	473.80542	714.88538	38.05781	579.45508	27.72259	1251.95142	-1040.82373	
892	8.910	-768.48969	-26.64401	-658.39679	801.99103	-28.01734	-636.02789	-700.47925	35.46722	473.79520	714.84595	37.82695	579.53894	27.38925	1252.03076	-1040.26611	
893	8.920	-768.48792	-26.52204	-658.31775	801.88788	-27.90791	-635.98840	-700.51276	35.36634	473.89420	714.81622	37.59502	579.62109	27.78087	1252.63696	-1040.05310	
894	8.930	-768.50555	-26.33663	-658.33569	801.87573	-27.70317	-635.97839	-700.56268	35.38806	473.69962	714.72363	37.36761	579.67163	27.90052	1252.90784	-1039.50549	
895	8.940	-768.61035	-26.07922	-658.26520	801.85339	-27.47476	-635.95380	-700.33282	34.91573	474.06244	714.67786	37.27462	579.72345	27.86637	1253.25635	-1039.02881	
896	8.950	-768.71906	-26.00307	-658.45343	801.81537	-27.32647	-635.93542	-700.22968	34.59831	474.26663	714.75281	37.16845	579.74164	27.89425	1253.40002	-1038.74280	
897	8.960	-768.59259	-25.48448	-658.14478	801.78033	-26.98163	-635.87933	-700.15686	34.36267	474.41501	714.53864	36.67705	579.23480	27.87047	1253.57275	-1038.51929	
898	8.970	-768.65668	-25.29234	-658.08459	801.77271	-26.84370	-635.90356	-700.23730	34.23964	474.51733	714.71759	36.77503	579.72314	27.84891	1253.82434	-1038.27576	
899	8.980	-768.55841	-25.29544	-658.07037	801.70227	-26.73488	-635.82123	-700.26959	34.01466	474.57562	715.38672	36.93260	579.87653	27.73657	1254.29932	-1038.04602	
